<svg width="1716" height="509" viewBox="0 0 1716 509" fill="none" xmlns="http://www.w3.org/2000/svg">
<path d="M179.772 452.684C268.83 452.684 341.026 379.496 341.026 289.213C341.026 268.565 337.25 248.812 330.359 230.623C347.866 258.662 358 291.901 358 327.539C358 427.757 277.859 509 179 509C80.141 509 0 427.757 0 327.539C0 289.255 11.6948 253.74 31.6603 224.466C23.2033 244.32 18.5172 266.212 18.5172 289.213C18.5172 379.496 90.7133 452.684 179.772 452.684Z" fill="url(#paint0_linear_183_73)"/>
<path d="M118.187 46.632C126.919 22.6047 150.413 5.53261 161.068 0C167.305 100.377 209.406 94.0543 209.406 154.913C209.406 203.6 177.181 230.525 161.068 237.902C166.682 199.964 142.616 145.692 129.882 123.298C122.345 107.754 109.455 70.6593 118.187 46.632Z" fill="url(#paint1_linear_183_73)"/>
<path d="M37.8828 144.638C36.6353 111.126 68.0293 84.8333 83.8823 75.8758C90.8991 156.494 134.56 181.786 133.78 234.741C133.156 277.105 102.854 305.084 87.7806 313.778C87.7806 280.582 76.0858 251.339 69.069 234.741C62.0521 218.143 39.4421 186.528 37.8828 144.638Z" fill="url(#paint2_linear_183_73)"/>
<path d="M311.541 273.469C325.887 200.122 263.982 151.225 231.237 135.944C261.643 226.837 189.136 240.273 135.339 309.826C92.3026 365.468 138.198 403.617 166.526 415.736C160.288 343.812 293.609 365.152 311.541 273.469Z" fill="url(#paint3_linear_183_73)"/>
<path d="M587.161 87.6975C581.271 85.3932 574.873 84.241 567.97 84.241C558.213 84.241 549.929 87.0984 543.118 92.8132C536.399 98.5281 533.039 105.902 533.039 114.935C533.039 120.373 534.144 125.028 536.353 128.9C538.562 132.771 541.507 136.228 545.189 139.269C548.871 142.311 553.059 145.03 557.753 147.427C562.54 149.823 567.464 152.22 572.526 154.616C578.141 157.289 583.802 160.239 589.509 163.465C595.215 166.599 600.324 170.378 604.834 174.803C609.344 179.135 612.98 184.343 615.741 190.426C618.595 196.51 620.021 203.884 620.021 212.548C620.021 231.26 612.98 245.962 598.897 256.654C584.814 267.346 566.221 272.692 543.118 272.692C526.458 272.692 510.028 270.065 493.828 264.811L493 263.567L500.318 213.793L508.878 212.41L519.233 254.718C525.86 257.76 533.223 259.281 541.323 259.281C553.013 259.281 562.401 256.331 569.489 250.432C576.668 244.441 580.258 236.468 580.258 226.513C580.258 220.89 579.154 216.143 576.944 212.272C574.735 208.308 571.744 204.805 567.97 201.764C564.196 198.63 559.916 195.865 555.13 193.468C550.344 191.071 545.373 188.675 540.219 186.278C534.604 183.513 528.989 180.61 523.375 177.568C517.76 174.526 512.744 170.839 508.325 166.507C503.907 162.175 500.318 157.013 497.556 151.022C494.795 144.938 493.414 137.61 493.414 129.038C493.414 111.433 500.133 97.422 513.572 87.0062C527.01 76.5905 544.453 71.3826 565.899 71.3826C579.522 71.3826 595.031 73.5026 612.428 77.7427L613.256 78.987L604.834 123.507L597.24 124.752L587.161 87.6975Z" fill="#A47026"/>
<path d="M705.622 173.42V224.715C705.622 235.592 705.714 244.671 705.899 251.953C705.991 254.534 707.187 256.147 709.488 256.792L725.504 261.631L725.918 268.544C714.505 268.268 701.02 268.13 685.465 268.13C669.541 268.13 655.182 268.268 642.388 268.544L641.698 261.631L660.199 256.516C662.592 255.778 663.834 254.349 663.926 252.229C664.11 244.763 664.202 235.592 664.202 224.715V114.52C664.202 105.303 664.11 97.6524 663.926 91.5689C663.834 89.1723 662.73 87.6515 660.613 87.0062L642.112 81.614L641.698 74.5626C654.492 74.9313 668.667 75.1157 684.222 75.1157C700.238 75.1157 713.86 74.9313 725.09 74.5626L725.918 81.614L709.488 86.3149C707.187 86.9601 705.991 88.3889 705.899 90.601C705.714 97.2376 705.622 105.026 705.622 113.967V158.764H787.91V113.967C787.91 105.026 787.818 97.2376 787.634 90.601C787.542 88.3889 786.345 86.9601 784.044 86.3149L767.89 81.614L767.476 74.5626C779.166 74.9313 792.973 75.1157 808.896 75.1157C824.452 75.1157 838.488 74.9313 851.007 74.5626L851.697 81.614L832.92 87.0062C830.803 87.6515 829.652 89.1723 829.468 91.5689C829.284 97.6524 829.192 105.303 829.192 114.52V224.715C829.192 235.592 829.284 244.763 829.468 252.229C829.652 254.349 830.941 255.778 833.334 256.516L851.283 261.631L851.697 268.544C838.534 268.268 823.991 268.13 808.068 268.13C792.512 268.13 779.212 268.268 768.167 268.544L767.476 261.631L784.044 256.792C786.345 256.147 787.542 254.534 787.634 251.953C787.818 244.671 787.91 235.592 787.91 224.715V173.42H705.622Z" fill="#A47026"/>
<path d="M916.312 206.741L906.509 232.596C904.576 237.666 903.058 241.768 901.953 244.901C900.941 247.943 900.434 250.294 900.434 251.953C900.434 253.52 900.849 254.718 901.677 255.548C902.505 256.377 903.794 257.022 905.543 257.483L918.797 261.355L919.211 268.544C905.865 268.268 895.004 268.13 886.628 268.13C877.883 268.13 867.897 268.268 856.667 268.544L855.977 261.631L870.75 257.207C874.248 256.193 876.825 254.534 878.482 252.229C880.139 249.833 881.979 246.238 884.004 241.445L952.762 73.7331L967.673 71.5209L1027.18 239.648C1029.48 246.1 1031.55 250.478 1033.39 252.782C1035.33 254.995 1038.04 256.608 1041.54 257.622L1055.07 261.631L1055.48 268.544C1043.06 268.268 1030.54 268.13 1017.93 268.13C1001.27 268.13 985.023 268.268 969.191 268.544L968.501 261.631L982.17 257.622C984.011 257.069 985.345 256.377 986.174 255.548C987.002 254.718 987.416 253.474 987.416 251.815C987.416 249.971 986.956 247.575 986.036 244.625C985.115 241.583 983.78 237.62 982.032 232.734L972.919 206.741H916.312ZM946.134 127.379C944.478 132.172 942.683 137.149 940.75 142.311L921.835 192.362H967.949L950.967 142.449C949.218 137.195 947.607 132.172 946.134 127.379Z" fill="#A47026"/>
<path d="M1129.21 113.967V223.333C1129.21 233.472 1129.3 243.519 1129.49 253.474H1183.47L1202.39 214.207L1210.81 212.963L1207.36 267.576L1206.39 268.544C1183.65 268.268 1161.43 268.13 1139.7 268.13H1105.46C1091.75 268.13 1079.05 268.268 1067.36 268.544L1066.67 261.631L1083.79 256.516C1086.09 255.87 1087.33 254.442 1087.51 252.229C1087.61 248.542 1087.65 244.441 1087.65 239.924C1087.74 235.315 1087.79 230.246 1087.79 224.715V114.52C1087.79 109.912 1087.74 105.718 1087.65 101.939C1087.65 98.1594 1087.61 94.7028 1087.51 91.5689C1087.42 89.1723 1086.32 87.6515 1084.2 87.0062L1067.08 81.614L1066.67 74.5626C1078.54 74.9313 1092.25 75.1157 1107.81 75.1157C1123.83 75.1157 1137.72 74.9313 1149.51 74.5626L1150.2 81.614L1133.08 86.7297C1130.87 87.2828 1129.67 88.6654 1129.49 90.8776C1129.39 94.1959 1129.3 98.9429 1129.21 105.119C1129.21 111.202 1129.21 114.152 1129.21 113.967Z" fill="#A47026"/>
<path d="M1272.94 168.996C1272.94 198.492 1277.91 221.074 1287.85 236.744C1297.79 252.322 1312.38 260.11 1331.62 260.11C1350.58 260.11 1364.57 253.013 1373.59 238.818C1382.7 224.623 1387.26 202.317 1387.26 171.899C1387.26 143.325 1382.47 121.387 1372.9 106.086C1363.33 90.6932 1348.51 82.9966 1328.44 82.9966C1309.02 82.9966 1294.89 90.1402 1286.05 104.427C1277.31 118.622 1272.94 140.145 1272.94 168.996ZM1433.65 167.198C1433.65 199.091 1424.26 224.761 1405.48 244.21C1386.7 263.567 1360.56 273.245 1327.06 273.245C1295.03 273.245 1270.27 264.304 1252.78 246.422C1235.29 228.448 1226.55 204.16 1226.55 173.558C1226.55 141.666 1235.98 116.456 1254.85 97.9289C1273.72 79.3096 1299.81 70 1333.13 70C1365.17 70 1389.93 78.7105 1407.41 96.1315C1424.9 113.46 1433.65 137.149 1433.65 167.198Z" fill="#A47026"/>
<path d="M1632.32 74.5626C1645.03 74.9313 1656.49 75.1157 1666.7 75.1157C1675.82 75.1157 1686.54 74.9313 1698.87 74.5626L1699.7 81.614L1680.79 87.0062C1678.67 87.6515 1677.56 89.1723 1677.47 91.5689C1677.29 97.6524 1677.2 105.303 1677.2 114.52V224.715C1677.2 235.592 1677.29 244.763 1677.47 252.229C1677.56 254.349 1678.81 255.778 1681.2 256.516L1699.15 261.631L1699.7 268.544C1686.54 268.268 1671.95 268.13 1655.93 268.13C1640.38 268.13 1627.35 268.268 1616.86 268.544L1616.17 261.631L1632.05 256.792C1634.26 256.147 1635.41 254.488 1635.5 251.815C1635.78 244.625 1635.91 235.592 1635.91 224.715V136.228C1635.91 131.434 1636.05 122.263 1636.33 108.713C1633.2 116.64 1629.89 124.844 1626.39 133.324L1571.44 268.13L1559.01 269.236L1506.55 138.301C1503.42 130.835 1500.2 122.493 1496.88 113.276C1497.07 126.365 1497.16 134.983 1497.16 139.131V224.715C1497.16 235.592 1497.25 244.625 1497.43 251.815C1497.53 254.488 1498.72 256.147 1501.02 256.792L1516.21 261.631L1516.63 268.544C1505.76 268.268 1496.33 268.13 1488.32 268.13C1480.41 268.13 1470.05 268.268 1457.26 268.544L1456.57 261.631L1475.07 256.516C1477.46 255.778 1478.7 254.349 1478.8 252.229C1478.98 244.763 1479.07 235.592 1479.07 224.715V114.52C1479.07 105.303 1478.98 97.6524 1478.8 91.5689C1478.7 89.1723 1477.6 87.6515 1475.48 87.0062L1456.98 81.614L1456.57 74.5626C1471.85 74.9313 1483.31 75.1157 1490.94 75.1157C1501.44 75.1157 1512.16 74.9313 1523.11 74.5626L1571.3 196.372C1573.42 201.625 1575.3 206.603 1576.96 211.304C1578.8 206.603 1580.73 201.625 1582.76 196.372L1632.32 74.5626Z" fill="#A47026"/>
<path d="M527.57 439C521.085 439 514.884 438.026 508.967 436.078C503.05 434.048 498.389 431.451 494.984 428.285L499.483 418.788C502.725 421.629 506.859 423.983 511.885 425.85C516.911 427.717 522.139 428.65 527.57 428.65C532.514 428.65 536.527 428.082 539.607 426.946C542.687 425.809 544.957 424.267 546.416 422.319C547.875 420.29 548.604 418.017 548.604 415.5C548.604 412.578 547.632 410.224 545.686 408.438C543.822 406.653 541.35 405.232 538.269 404.177C535.27 403.04 531.947 402.066 528.299 401.255C524.652 400.443 520.963 399.509 517.235 398.454C513.587 397.318 510.223 395.897 507.143 394.193C504.144 392.488 501.712 390.215 499.848 387.374C497.984 384.452 497.051 380.718 497.051 376.172C497.051 371.789 498.186 367.771 500.456 364.118C502.807 360.384 506.373 357.421 511.155 355.23C516.019 352.957 522.179 351.82 529.637 351.82C534.581 351.82 539.485 352.47 544.349 353.769C549.212 355.067 553.427 356.934 556.994 359.37L552.981 369.11C549.334 366.675 545.484 364.93 541.431 363.875C537.378 362.738 533.446 362.17 529.637 362.17C524.854 362.17 520.923 362.779 517.843 363.996C514.763 365.214 512.493 366.837 511.034 368.867C509.656 370.896 508.967 373.169 508.967 375.685C508.967 378.689 509.899 381.083 511.763 382.869C513.709 384.655 516.181 386.075 519.18 387.131C522.26 388.186 525.624 389.16 529.272 390.053C532.92 390.865 536.567 391.798 540.215 392.853C543.943 393.909 547.307 395.288 550.306 396.993C553.387 398.698 555.859 400.971 557.723 403.812C559.588 406.653 560.52 410.305 560.52 414.77C560.52 419.072 559.344 423.09 556.994 426.824C554.643 430.477 550.995 433.44 546.051 435.713C541.187 437.904 535.027 439 527.57 439Z" fill="#A47026"/>
<path d="M605.275 438.756C598.385 438.756 592.306 437.336 587.037 434.495C581.849 431.654 577.796 427.758 574.878 422.806C572.041 417.855 570.623 412.172 570.623 405.76C570.623 399.347 572.001 393.665 574.757 388.714C577.594 383.762 581.444 379.906 586.308 377.146C591.252 374.305 596.805 372.885 602.965 372.885C609.206 372.885 614.718 374.265 619.501 377.025C624.283 379.784 628.012 383.681 630.687 388.714C633.443 393.665 634.821 399.469 634.821 406.125C634.821 406.612 634.78 407.18 634.699 407.83C634.699 408.479 634.659 409.088 634.578 409.656H579.742V401.255H628.498L623.756 404.177C623.837 400.037 622.986 396.344 621.203 393.097C619.42 389.85 616.947 387.334 613.786 385.548C610.706 383.681 607.099 382.747 602.965 382.747C598.912 382.747 595.305 383.681 592.144 385.548C588.982 387.334 586.51 389.89 584.727 393.219C582.944 396.465 582.052 400.199 582.052 404.42V406.369C582.052 410.671 583.025 414.526 584.97 417.936C586.997 421.264 589.793 423.861 593.36 425.728C596.926 427.595 601.02 428.529 605.64 428.529C609.45 428.529 612.895 427.879 615.975 426.581C619.136 425.282 621.892 423.334 624.243 420.736L630.687 428.285C627.769 431.694 624.121 434.292 619.744 436.078C615.448 437.864 610.625 438.756 605.275 438.756Z" fill="#A47026"/>
<path d="M651.029 438.026V373.494H662.215V391.027L661.121 386.644C662.904 382.179 665.903 378.77 670.118 376.416C674.333 374.062 679.521 372.885 685.681 372.885V384.208C685.195 384.127 684.708 384.087 684.222 384.087C683.817 384.087 683.412 384.087 683.006 384.087C676.765 384.087 671.82 385.954 668.173 389.688C664.525 393.422 662.701 398.819 662.701 405.882V438.026H651.029Z" fill="#A47026"/>
<path d="M719.58 438.026L691.372 373.494H703.531L728.578 431.938H722.741L748.275 373.494H759.704L731.496 438.026H719.58Z" fill="#A47026"/>
<path d="M770.597 438.026V373.494H782.27V438.026H770.597ZM776.433 361.074C774.164 361.074 772.259 360.344 770.719 358.883C769.26 357.421 768.53 355.636 768.53 353.525C768.53 351.333 769.26 349.507 770.719 348.046C772.259 346.585 774.164 345.854 776.433 345.854C778.703 345.854 780.567 346.585 782.026 348.046C783.567 349.426 784.337 351.171 784.337 353.282C784.337 355.473 783.607 357.34 782.148 358.883C780.689 360.344 778.784 361.074 776.433 361.074Z" fill="#A47026"/>
<path d="M832.643 438.756C826.077 438.756 820.2 437.336 815.013 434.495C809.906 431.654 805.894 427.758 802.975 422.806C800.057 417.855 798.598 412.172 798.598 405.76C798.598 399.347 800.057 393.665 802.975 388.714C805.894 383.762 809.906 379.906 815.013 377.146C820.2 374.305 826.077 372.885 832.643 372.885C838.479 372.885 843.667 374.062 848.206 376.416C852.826 378.689 856.393 382.098 858.905 386.644L850.03 392.366C847.922 389.201 845.328 386.887 842.248 385.426C839.249 383.884 836.007 383.113 832.521 383.113C828.306 383.113 824.537 384.046 821.213 385.913C817.89 387.78 815.256 390.418 813.31 393.827C811.365 397.155 810.392 401.133 810.392 405.76C810.392 410.387 811.365 414.405 813.31 417.814C815.256 421.223 817.89 423.861 821.213 425.728C824.537 427.595 828.306 428.529 832.521 428.529C836.007 428.529 839.249 427.798 842.248 426.337C845.328 424.795 847.922 422.441 850.03 419.275L858.905 424.876C856.393 429.34 852.826 432.79 848.206 435.225C843.667 437.579 838.479 438.756 832.643 438.756Z" fill="#A47026"/>
<path d="M873.186 438.026V373.494H884.859V438.026H873.186ZM879.022 361.074C876.753 361.074 874.848 360.344 873.308 358.883C871.849 357.421 871.119 355.636 871.119 353.525C871.119 351.333 871.849 349.507 873.308 348.046C874.848 346.585 876.753 345.854 879.022 345.854C881.292 345.854 883.156 346.585 884.615 348.046C886.155 349.426 886.925 351.171 886.925 353.282C886.925 355.473 886.196 357.34 884.737 358.883C883.278 360.344 881.373 361.074 879.022 361.074Z" fill="#A47026"/>
<path d="M934.745 438.756C928.261 438.756 922.506 437.336 917.48 434.495C912.454 431.654 908.482 427.758 905.564 422.806C902.646 417.773 901.187 412.091 901.187 405.76C901.187 399.347 902.646 393.665 905.564 388.714C908.482 383.762 912.454 379.906 917.48 377.146C922.506 374.305 928.261 372.885 934.745 372.885C941.149 372.885 946.863 374.305 951.889 377.146C956.996 379.906 960.967 383.762 963.805 388.714C966.723 393.584 968.182 399.266 968.182 405.76C968.182 412.172 966.723 417.855 963.805 422.806C960.967 427.758 956.996 431.654 951.889 434.495C946.863 437.336 941.149 438.756 934.745 438.756ZM934.745 428.529C938.879 428.529 942.567 427.595 945.81 425.728C949.133 423.861 951.727 421.223 953.591 417.814C955.456 414.323 956.388 410.305 956.388 405.76C956.388 401.133 955.456 397.155 953.591 393.827C951.727 390.418 949.133 387.78 945.81 385.913C942.567 384.046 938.879 383.113 934.745 383.113C930.611 383.113 926.923 384.046 923.681 385.913C920.439 387.78 917.845 390.418 915.899 393.827C913.954 397.155 912.981 401.133 912.981 405.76C912.981 410.305 913.954 414.323 915.899 417.814C917.845 421.223 920.439 423.861 923.681 425.728C926.923 427.595 930.611 428.529 934.745 428.529Z" fill="#A47026"/>
<path d="M1002.81 438.756C997.456 438.756 992.349 438.026 987.485 436.565C982.703 435.104 978.934 433.318 976.178 431.207L981.041 421.954C983.797 423.821 987.202 425.404 991.255 426.702C995.308 428.001 999.442 428.65 1003.66 428.65C1009.09 428.65 1012.98 427.879 1015.33 426.337C1017.76 424.795 1018.98 422.644 1018.98 419.884C1018.98 417.854 1018.25 416.272 1016.79 415.135C1015.33 413.999 1013.38 413.146 1010.95 412.578C1008.6 412.01 1005.97 411.523 1003.05 411.117C1000.13 410.63 997.212 410.062 994.294 409.413C991.376 408.682 988.701 407.708 986.27 406.49C983.838 405.192 981.892 403.446 980.433 401.255C978.974 398.982 978.245 395.978 978.245 392.245C978.245 388.348 979.339 384.939 981.528 382.017C983.716 379.095 986.796 376.862 990.768 375.32C994.821 373.697 999.604 372.885 1005.12 372.885C1009.33 372.885 1013.59 373.412 1017.88 374.468C1022.26 375.442 1025.83 376.862 1028.58 378.729L1023.6 387.983C1020.68 386.035 1017.64 384.695 1014.48 383.965C1011.32 383.234 1008.16 382.869 1004.99 382.869C999.887 382.869 996.078 383.721 993.565 385.426C991.052 387.049 989.796 389.16 989.796 391.757C989.796 393.949 990.525 395.654 991.984 396.871C993.524 398.008 995.47 398.901 997.82 399.55C1000.25 400.199 1002.93 400.768 1005.85 401.255C1008.76 401.661 1011.68 402.229 1014.6 402.959C1017.52 403.609 1020.15 404.542 1022.5 405.76C1024.93 406.977 1026.88 408.682 1028.34 410.874C1029.88 413.065 1030.65 415.988 1030.65 419.64C1030.65 423.537 1029.51 426.905 1027.24 429.746C1024.97 432.587 1021.77 434.82 1017.64 436.443C1013.51 437.985 1008.56 438.756 1002.81 438.756Z" fill="#A47026"/>
<path d="M1090.53 393.097H1134.43V403.568H1090.53V393.097ZM1091.75 438.026H1079.59V352.795H1139.66V363.388H1091.75V438.026Z" fill="#A47026"/>
<path d="M1180.16 438.756C1174.65 438.756 1169.79 437.742 1165.57 435.713C1161.44 433.683 1158.2 430.599 1155.85 426.459C1153.58 422.238 1152.44 416.962 1152.44 410.63V373.494H1164.11V409.291C1164.11 415.622 1165.61 420.371 1168.61 423.537C1171.69 426.702 1175.99 428.285 1181.5 428.285C1185.55 428.285 1189.08 427.473 1192.08 425.85C1195.08 424.145 1197.39 421.71 1199.01 418.544C1200.63 415.298 1201.44 411.401 1201.44 406.856V373.494H1213.11V438.026H1202.05V420.614L1203.87 425.241C1201.77 429.543 1198.6 432.871 1194.39 435.225C1190.17 437.579 1185.43 438.756 1180.16 438.756Z" fill="#A47026"/>
<path d="M1269.74 372.885C1275.01 372.885 1279.63 373.899 1283.6 375.929C1287.66 377.958 1290.82 381.043 1293.09 385.182C1295.36 389.322 1296.49 394.558 1296.49 400.889V438.026H1284.82V402.229C1284.82 395.978 1283.28 391.27 1280.2 388.105C1277.2 384.939 1272.95 383.356 1267.43 383.356C1263.3 383.356 1259.69 384.168 1256.61 385.791C1253.53 387.415 1251.14 389.809 1249.44 392.975C1247.82 396.141 1247.01 400.078 1247.01 404.786V438.026H1235.33V373.494H1246.52V390.905L1244.7 386.278C1246.8 382.057 1250.05 378.77 1254.42 376.416C1258.8 374.062 1263.91 372.885 1269.74 372.885Z" fill="#A47026"/>
<path d="M1346.79 438.756C1339.9 438.756 1333.82 437.336 1328.55 434.495C1323.36 431.654 1319.31 427.758 1316.39 422.806C1313.56 417.855 1312.14 412.172 1312.14 405.76C1312.14 399.347 1313.51 393.665 1316.27 388.714C1319.11 383.762 1322.96 379.906 1327.82 377.146C1332.77 374.305 1338.32 372.885 1344.48 372.885C1350.72 372.885 1356.23 374.265 1361.01 377.025C1365.8 379.784 1369.53 383.681 1372.2 388.714C1374.96 393.665 1376.33 399.469 1376.33 406.125C1376.33 406.612 1376.29 407.18 1376.21 407.83C1376.21 408.479 1376.17 409.088 1376.09 409.656H1321.26V401.255H1370.01L1365.27 404.177C1365.35 400.037 1364.5 396.344 1362.72 393.097C1360.93 389.85 1358.46 387.334 1355.3 385.548C1352.22 383.681 1348.61 382.747 1344.48 382.747C1340.43 382.747 1336.82 383.681 1333.66 385.548C1330.5 387.334 1328.02 389.89 1326.24 393.219C1324.46 396.465 1323.57 400.199 1323.57 404.42V406.369C1323.57 410.671 1324.54 414.526 1326.48 417.936C1328.51 421.264 1331.31 423.861 1334.87 425.728C1338.44 427.595 1342.53 428.529 1347.15 428.529C1350.96 428.529 1354.41 427.879 1357.49 426.581C1360.65 425.282 1363.41 423.334 1365.76 420.736L1372.2 428.285C1369.28 431.694 1365.64 434.292 1361.26 436.078C1356.96 437.864 1352.14 438.756 1346.79 438.756Z" fill="#A47026"/>
<path d="M1392.54 438.026V373.494H1403.73V391.027L1402.63 386.644C1404.42 382.179 1407.42 378.77 1411.63 376.416C1415.85 374.062 1421.03 372.885 1427.2 372.885V384.208C1426.71 384.127 1426.22 384.087 1425.74 384.087C1425.33 384.087 1424.93 384.087 1424.52 384.087C1418.28 384.087 1413.33 385.954 1409.69 389.688C1406.04 393.422 1404.22 398.819 1404.22 405.882V438.026H1392.54Z" fill="#A47026"/>
<path d="M1476.83 438.026V424.389L1476.23 421.832V398.576C1476.23 393.624 1474.77 389.809 1471.85 387.131C1469.01 384.371 1464.72 382.991 1458.96 382.991C1455.15 382.991 1451.42 383.64 1447.77 384.939C1444.13 386.157 1441.05 387.821 1438.53 389.931L1433.67 381.164C1436.99 378.486 1440.97 376.456 1445.59 375.076C1450.29 373.615 1455.19 372.885 1460.3 372.885C1469.13 372.885 1475.94 375.036 1480.72 379.338C1485.51 383.64 1487.9 390.215 1487.9 399.063V438.026H1476.83ZM1455.68 438.756C1450.9 438.756 1446.68 437.945 1443.03 436.321C1439.47 434.698 1436.71 432.466 1434.76 429.625C1432.82 426.702 1431.85 423.415 1431.85 419.762C1431.85 416.272 1432.66 413.106 1434.28 410.265C1435.98 407.424 1438.7 405.151 1442.42 403.446C1446.23 401.742 1451.34 400.889 1457.74 400.889H1478.17V409.291H1458.23C1452.39 409.291 1448.46 410.265 1446.44 412.213C1444.41 414.161 1443.4 416.515 1443.4 419.275C1443.4 422.441 1444.65 424.998 1447.17 426.946C1449.68 428.813 1453.16 429.746 1457.62 429.746C1462 429.746 1465.81 428.772 1469.05 426.824C1472.38 424.876 1474.77 422.035 1476.23 418.301L1478.54 426.337C1477 430.152 1474.28 433.196 1470.39 435.469C1466.5 437.661 1461.59 438.756 1455.68 438.756Z" fill="#A47026"/>
<path d="M1509.5 438.026V373.494H1520.68V391.027L1519.59 386.644C1521.37 382.179 1524.37 378.77 1528.59 376.416C1532.8 374.062 1537.99 372.885 1544.15 372.885V384.208C1543.66 384.127 1543.18 384.087 1542.69 384.087C1542.29 384.087 1541.88 384.087 1541.48 384.087C1535.23 384.087 1530.29 385.954 1526.64 389.688C1523 393.422 1521.17 398.819 1521.17 405.882V438.026H1509.5Z" fill="#A47026"/>
<path d="M1558.54 438.026V373.494H1570.21V438.026H1558.54ZM1564.37 361.074C1562.1 361.074 1560.2 360.344 1558.66 358.883C1557.2 357.421 1556.47 355.636 1556.47 353.525C1556.47 351.333 1557.2 349.507 1558.66 348.046C1560.2 346.585 1562.1 345.854 1564.37 345.854C1566.64 345.854 1568.51 346.585 1569.97 348.046C1571.51 349.426 1572.28 351.171 1572.28 353.282C1572.28 355.473 1571.55 357.34 1570.09 358.883C1568.63 360.344 1566.72 361.074 1564.37 361.074Z" fill="#A47026"/>
<path d="M1620.1 438.756C1613.61 438.756 1607.86 437.336 1602.83 434.495C1597.81 431.654 1593.83 427.758 1590.92 422.806C1588 417.773 1586.54 412.091 1586.54 405.76C1586.54 399.347 1588 393.665 1590.92 388.714C1593.83 383.762 1597.81 379.906 1602.83 377.146C1607.86 374.305 1613.61 372.885 1620.1 372.885C1626.5 372.885 1632.21 374.305 1637.24 377.146C1642.35 379.906 1646.32 383.762 1649.16 388.714C1652.07 393.584 1653.53 399.266 1653.53 405.76C1653.53 412.172 1652.07 417.855 1649.16 422.806C1646.32 427.758 1642.35 431.654 1637.24 434.495C1632.21 437.336 1626.5 438.756 1620.1 438.756ZM1620.1 428.529C1624.23 428.529 1627.92 427.595 1631.16 425.728C1634.48 423.861 1637.08 421.223 1638.94 417.814C1640.81 414.323 1641.74 410.305 1641.74 405.76C1641.74 401.133 1640.81 397.155 1638.94 393.827C1637.08 390.418 1634.48 387.78 1631.16 385.913C1627.92 384.046 1624.23 383.113 1620.1 383.113C1615.96 383.113 1612.27 384.046 1609.03 385.913C1605.79 387.78 1603.2 390.418 1601.25 393.827C1599.31 397.155 1598.33 401.133 1598.33 405.76C1598.33 410.305 1599.31 414.323 1601.25 417.814C1603.2 421.223 1605.79 423.861 1609.03 425.728C1612.27 427.595 1615.96 428.529 1620.1 428.529Z" fill="#A47026"/>
<path d="M1688.16 438.756C1682.81 438.756 1677.7 438.026 1672.84 436.565C1668.05 435.104 1664.29 433.318 1661.53 431.207L1666.39 421.954C1669.15 423.821 1672.55 425.404 1676.61 426.702C1680.66 428.001 1684.79 428.65 1689.01 428.65C1694.44 428.65 1698.33 427.879 1700.68 426.337C1703.11 424.795 1704.33 422.644 1704.33 419.884C1704.33 417.854 1703.6 416.272 1702.14 415.135C1700.68 413.999 1698.73 413.146 1696.3 412.578C1693.95 412.01 1691.32 411.523 1688.4 411.117C1685.48 410.63 1682.56 410.062 1679.65 409.413C1676.73 408.682 1674.05 407.708 1671.62 406.49C1669.19 405.192 1667.24 403.446 1665.78 401.255C1664.33 398.982 1663.6 395.978 1663.6 392.245C1663.6 388.348 1664.69 384.939 1666.88 382.017C1669.07 379.095 1672.15 376.862 1676.12 375.32C1680.17 373.697 1684.95 372.885 1690.47 372.885C1694.68 372.885 1698.94 373.412 1703.23 374.468C1707.61 375.442 1711.18 376.862 1713.93 378.729L1708.95 387.983C1706.03 386.035 1702.99 384.695 1699.83 383.965C1696.67 383.234 1693.51 382.869 1690.35 382.869C1685.24 382.869 1681.43 383.721 1678.92 385.426C1676.4 387.049 1675.15 389.16 1675.15 391.757C1675.15 393.949 1675.88 395.654 1677.34 396.871C1678.88 398.008 1680.82 398.901 1683.17 399.55C1685.6 400.199 1688.28 400.768 1691.2 401.255C1694.11 401.661 1697.03 402.229 1699.95 402.959C1702.87 403.609 1705.5 404.542 1707.85 405.76C1710.29 406.977 1712.23 408.682 1713.69 410.874C1715.23 413.065 1716 415.988 1716 419.64C1716 423.537 1714.87 426.905 1712.6 429.746C1710.33 432.587 1707.12 434.82 1702.99 436.443C1698.86 437.985 1693.91 438.756 1688.16 438.756Z" fill="#A47026"/>
<defs>
<linearGradient id="paint0_linear_183_73" x1="179" y1="0" x2="179" y2="509" gradientUnits="userSpaceOnUse">
<stop stop-color="#79481D"/>
<stop offset="1" stop-color="#E1B240"/>
</linearGradient>
<linearGradient id="paint1_linear_183_73" x1="179" y1="0" x2="179" y2="509" gradientUnits="userSpaceOnUse">
<stop stop-color="#79481D"/>
<stop offset="1" stop-color="#E1B240"/>
</linearGradient>
<linearGradient id="paint2_linear_183_73" x1="179" y1="0" x2="179" y2="509" gradientUnits="userSpaceOnUse">
<stop stop-color="#79481D"/>
<stop offset="1" stop-color="#E1B240"/>
</linearGradient>
<linearGradient id="paint3_linear_183_73" x1="179" y1="0" x2="179" y2="509" gradientUnits="userSpaceOnUse">
<stop stop-color="#79481D"/>
<stop offset="1" stop-color="#E1B240"/>
</linearGradient>
</defs>
</svg>
